<?xml version="1.0" encoding="iso-8859-1"?>
<!-- Generator: Adobe Illustrator 16.0.0, SVG Export Plug-In . SVG Version: 6.00 Build 0)  -->
<!DOCTYPE svg PUBLIC "-//W3C//DTD SVG 1.1//EN" "http://www.w3.org/Graphics/SVG/1.1/DTD/svg11.dtd">
<svg version="1.1" id="Capa_1" xmlns="http://www.w3.org/2000/svg" xmlns:xlink="http://www.w3.org/1999/xlink" x="0px" y="0px"
	 width="367.3px" height="367.299px" viewBox="0 0 367.3 367.299" style="enable-background:new 0 0 367.3 367.299;"
	 xml:space="preserve">
<g>
	<g>
		<path d="M114.8,252.5l15.3-13.4c-26.8-15.301-44-42.1-44-74.601c0-38.2,24.9-68.9,57.4-80.3c0,1.9,0,3.8,0,3.8
			c0,57.4,47.8,105.2,105.2,105.2c1.9,0,3.8,0,3.8,0c-5.7,15.301-15.3,28.699-26.8,38.199l15.3,13.4c17.2-13.4,28.7-32.5,34.4-55.5
			c1.899-7.7,1.899-13.4,3.8-21c-11.5,3.8-21,5.7-30.6,5.7c-47.801,0-86.101-38.2-86.101-86.1c0-9.6,1.9-19.1,5.7-28.7
			c-7.6,0-13.4,1.9-21,3.8c-45.9,11.5-80.3,53.5-80.3,101.4C67,200.899,86.1,233.399,114.8,252.5z"/>
		<path d="M353.9,288.899H248.7L181.8,231.5L114.9,288.899H9.6c-5.7,0-9.6,3.801-9.6,9.602c0,5.799,3.8,9.6,9.6,9.6h116.7l22.9-19.1
			l34.4-28.701L218,289l23,19.1h116.7c5.7,0,9.6-3.801,9.6-9.6C363.4,292.7,359.601,288.899,353.9,288.899z"/>
	</g>
</g>
<g>
</g>
<g>
</g>
<g>
</g>
<g>
</g>
<g>
</g>
<g>
</g>
<g>
</g>
<g>
</g>
<g>
</g>
<g>
</g>
<g>
</g>
<g>
</g>
<g>
</g>
<g>
</g>
<g>
</g>
</svg>
