<?xml version="1.0" encoding="iso-8859-1"?>
<!-- Generator: Adobe Illustrator 16.0.0, SVG Export Plug-In . SVG Version: 6.00 Build 0)  -->
<!DOCTYPE svg PUBLIC "-//W3C//DTD SVG 1.1//EN" "http://www.w3.org/Graphics/SVG/1.1/DTD/svg11.dtd">
<svg version="1.1" id="Capa_1" xmlns="http://www.w3.org/2000/svg" xmlns:xlink="http://www.w3.org/1999/xlink" x="0px" y="0px"
	 width="363.4px" height="363.4px" viewBox="0 0 363.4 363.4" style="enable-background:new 0 0 363.4 363.4;" xml:space="preserve"
	>
<g>
	<g>
		<path d="M353.9,267.65H237.2l-23,19.101l-34.4,28.7l-30.6-28.601l-22.9-19.1H9.6c-5.7,0-9.6,3.8-9.6,9.6s3.8,9.601,9.6,9.601
			h105.2l66.9,57.399l66.9-57.399H353.8c5.7,0,9.601-3.801,9.601-9.601S359.601,267.65,353.9,267.65z"/>
		<path d="M172.2,229.451c49.7,0,89.9-34.4,101.4-80.3c1.899-7.6,1.899-13.4,3.8-21c-9.601,3.8-19.101,5.7-28.7,5.7
			c-47.8,0-86.1-38.2-86.1-86.1c0-9.6,1.9-19.1,5.7-28.7c-7.6,0-13.4,1.9-21,3.8C101.4,34.35,67,76.35,67,124.25
			C67,181.65,114.8,229.451,172.2,229.451z M143.5,42.05c0,1.9,0,3.8,0,3.8c0,57.4,47.8,105.2,105.2,105.2c1.9,0,3.8,0,3.8,0
			c-11.5,34.4-44,57.4-80.3,57.4c-47.8,0-86.1-38.2-86.1-86.101C86.1,85.95,111,55.35,143.5,42.05z"/>
	</g>
</g>
<g>
</g>
<g>
</g>
<g>
</g>
<g>
</g>
<g>
</g>
<g>
</g>
<g>
</g>
<g>
</g>
<g>
</g>
<g>
</g>
<g>
</g>
<g>
</g>
<g>
</g>
<g>
</g>
<g>
</g>
</svg>
